<svg xmlns="http://www.w3.org/2000/svg" viewBox="0 0 418.39 509.65"><defs><style>.cls-1{fill:#fff;}</style></defs><g id="Layer_2" data-name="Layer 2"><g id="Layer_1-2" data-name="Layer 1"><path class="cls-1" d="M233.87,37a299.42,299.42,0,0,1,36.76,29.87,113.32,113.32,0,0,1,14.93,17.23c7.31,10.43,14.4,20.55,11.49,25.27-2.12,3.44-9.44,3.81-60.88-9.19-26.41-6.67-36.11-9.71-51.69-8-8.75.94-21.87,2.53-32.16,12.63-8.53,8.38-10.89,18.46-12.64,26.42-1.9,8.68-3.11,21.32,4.6,52.84a424.47,424.47,0,0,0,12.63,41.35c8.88,25,16,36.9,31,73.52,11.35,27.67,12.77,33.76,10.33,35.61-4.4,3.33-19.56-8.61-43.64-27.57-11.81-9.3-18.28-15-18.28-15-30.74-27-62.48-53.1-107.94-99.07-17.15-17.35-31.8-33-27.71-46.77,1.15-3.87,4.2-9.13,12.64-17.23,7.62-7.32,14.08-15.79,21.82-23,20.5-19,18-20.57,48.25-50.54,1.6-1.59,16.1-15.91,36.76-33.31C140.54,4.89,147.32,1.23,155.76.23c10.69-1.25,19,2.61,35.61,10.34C206.28,17.51,215.75,24.2,233.87,37Z"/><path class="cls-1" d="M184.52,472.66a299.42,299.42,0,0,1-36.76-29.87,113.32,113.32,0,0,1-14.93-17.23c-7.32-10.43-14.4-20.55-11.49-25.27,2.12-3.44,9.43-3.81,60.88,9.19,26.41,6.67,36.11,9.71,51.69,8,8.75-.94,21.87-2.53,32.16-12.63,8.53-8.39,10.89-18.46,12.64-26.42,1.9-8.68,3.11-21.32-4.6-52.84a424.47,424.47,0,0,0-12.63-41.35c-8.88-25-16-36.9-31-73.52-11.35-27.67-12.77-33.76-10.34-35.61,4.41-3.34,19.57,8.61,43.65,27.57,11.81,9.3,18.28,15,18.28,15,30.74,27,62.48,53.1,107.94,99.07,17.15,17.35,31.8,33,27.71,46.77-1.15,3.87-4.2,9.13-12.64,17.23-7.62,7.32-14.08,15.79-21.82,23-20.51,19-18,20.57-48.25,50.54-1.6,1.59-16.1,15.91-36.76,33.31-20.38,17.17-27.17,20.83-35.6,21.83-10.69,1.25-19-2.61-35.61-10.34C212.11,492.14,202.64,485.45,184.52,472.66Z"/></g></g></svg>